<svg width="582" height="522" viewBox="0 0 582 522" fill="none" xmlns="http://www.w3.org/2000/svg">
<path d="M14.8845 -13C8.11729 -13 3.77087 -5.81177 6.91459 0.180944L90.4095 159.343C93.2016 164.665 100.326 165.808 104.642 161.626L149.944 117.729C154.772 113.05 162.839 115.125 164.811 121.553L278.925 493.546C281.524 502.019 293.513 502.03 296.128 493.563L388.147 195.617C391.031 186.278 404.64 187.586 405.694 197.303L413.298 267.462C414.258 276.313 426.114 278.546 430.228 270.65L491 154L574.299 0.28809C577.549 -5.70866 573.207 -13 566.386 -13H14.8845Z" fill="#37B7FF"/>
<rect x="193" y="144.387" width="12" height="306.61" rx="6" transform="rotate(-16.3939 193 144.387)" fill="white" fill-opacity="0.85"/>
<rect x="59.7306" y="64.5211" width="12" height="80.3484" rx="6" transform="rotate(-27.2776 59.7306 64.5211)" fill="white" fill-opacity="0.85"/>
</svg>
