<svg xmlns="http://www.w3.org/2000/svg" data-name="Layer 1" width="250.57245" height="402.57036" viewBox="0 0 250.57245 402.57036" xmlns:xlink="http://www.w3.org/1999/xlink"><path d="M517.883,473.53046a101.57092,101.57092,0,0,1,14.8558-148.44374,183.149,183.149,0,0,0,61.89328-84.41463C594.63117,329.08156,563.27172,417.17537,517.883,473.53046Z" transform="translate(-462.42755 -212.99041)" fill="#a0fff0"/><path d="M645.01649,295.2618c-4.12169-15.79943-9.20291-31.58717-17.0642-45.95439-6.5218-10.73238-14.81156-20.70665-24.90338-28.24681-.68793-.47982-1.40261-.92155-2.12024-1.35376a44.19752,44.19752,0,0,1,4.96288,5.33649c10.0076,13.11117,16.55185,25.667,20.39719,40.983,6.90664,26.278,9.9057,45.41177,8.70644,73.07108q-.09573,3.61835-.29007,7.16813c-33.799,8.45911-62.38858,28.99323-85.1546,54.9577,27.32809-18.99934,55.06209-37.6813,84.64248-53.0272q.19824-.10151.39661-.20324c-2.18,35.62918-11.797,66.50914-30.7699,98.413-17.48088,29.4056-46.2499,57.65161-73.443,50.10465a210.19055,210.19055,0,0,1,1.33675-34.81339c1.79221-19.3157,8.50071-50.91228,18.39994-74.38233,6.9437-17.87954,12.83675-29.82715,23.51993-52.14147,10.4618-21.94343,20.54477-44.08057,31.87088-65.59961,3.84557-6.51387-4.559,5.29954-5.94881,6.97839-15.87571,21.49013-29.86116,44.30183-43.2386,67.40848A278.6233,278.6233,0,0,0,536.002,385.99671a147.84748,147.84748,0,0,0-15.05436-11.60858c-10.31625-6.1151-21.53354-10.68205-32.84537-14.60345-.54069-.174-1.084-.34346-1.62433-.51439,5.52068,4.00925,11.01133,8.06736,16.727,11.79776,10.28973,6.47908,20.713,12.81374,31.453,18.53687a292.18727,292.18727,0,0,0-18.026,100.56908c-10.73679-6.92511-20.69826-17.76766-27.09017-28.23445-12.57467-22.11685-16.27923-60.00275-10.83008-85.52277,4.23086-20.22773,9.532-31.48719,17.99063-48.16588,13.783-26.4342,27.10909-43.5366,46.19016-64.34855,10.74348-11.423,21.88879-22.56346,34.14575-32.36975,6.38839-4.91538,18.69091-12.93468,27.47045-18.54219-10.40138,4.49462-20.94763,8.76288-30.82227,14.35589-11.349,6.56737-21.76829,14.606-31.92019,22.87143-22.73871,18.72628-42.24224,41.46464-55.518,67.8594-14.82494,27.135-25.29819,57.5395-23.65006,88.81076,1.675,42.1766,13.28642,74.43311,50.62993,97.37766,1.51381.82192,3.02128,1.559,4.52319,2.22827,5.06081,41.28691,21.72148,81.5032,53.78257,109.067-20.44718-26.04937-31.37214-52.94944-37.08971-85.2548-1.21887-6.6075-2.22011-13.1148-2.95123-19.6756,43.89128,6.997,80.777-45.976,96.93208-82.60056,9.50908-20.93041,16.463-43.05384,18.87227-65.97776C650.08932,339.88294,650.03446,317.11262,645.01649,295.2618Z" transform="translate(-462.42755 -212.99041)"/><circle cx="29.57245" cy="33.00959" r="9"/><circle cx="242.57245" cy="153.00959" r="8"/><circle cx="137.57245" cy="327.00959" r="8"/></svg>